<svg id="Layer_1" data-name="Layer 1" xmlns="http://www.w3.org/2000/svg" viewBox="0 0 82 86"><title>bathroom-icon</title><path d="M69.2,18.58a.5.5,0,0,1-.35-.85l4.36-4.36a.5.5,0,0,1,.7,0,.5.5,0,0,1,0,.71l-4.36,4.36A.5.5,0,0,1,69.2,18.58Zm2.07,2.73,7.23-7.23a.5.5,0,0,0,0-.71.51.51,0,0,0-.71,0L70.57,20.6a.5.5,0,0,0,0,.71.52.52,0,0,0,.35.14A.5.5,0,0,0,71.27,21.31Zm-3.48,3.47,2.45-2.44a.5.5,0,0,0,0-.71.51.51,0,0,0-.71,0l-2.44,2.45a.48.48,0,0,0,0,.7.48.48,0,0,0,.7,0ZM91,46v4H89V93H85.49L83,71.2V71H18v.15L15.62,93H12V50H9V46H32a13.35,13.35,0,0,1,.12-9.42A.93.93,0,0,1,33,36H44V34H42.56a.5.5,0,0,1,0-1h3.92a.5.5,0,0,1,0,1H45v2h3V31H12V7H86V31H52v5h3V34H53.57a.5.5,0,1,1,0-1h3.91a.5.5,0,0,1,0,1H56v2H67.31a.93.93,0,0,1,.82.58A13.35,13.35,0,0,1,68.25,46ZM52.6,25a.5.5,0,0,1,0,1H52v1H82V11H16V27H48V26h-.64a.5.5,0,0,1,0-1ZM49,26V36h2V26Zm-1,4V28H15V10H83V28H52v2H85V8H13V30Zm-15,15.84.06.16H67.17l.07-.2a12.25,12.25,0,0,0,0-8.8H33.05A12.25,12.25,0,0,0,33.05,45.84ZM17,50H13V92h1.71L17,70.53Zm33,0H18V70H50Zm33.07,0H51V70H83ZM88,50H84V71.15L86.4,92H88Zm2-3H10v2H90ZM43.27,57H23.73v6.56H43.27V57ZM24.73,58H42.27v4.56H24.73ZM48.36,51.7H19.52V68.4H48.36Zm-27.84,1H47.36V67.4H20.52Zm15,1.8A.5.5,0,0,0,35,54H32a.5.5,0,0,0,0,1h3A.5.5,0,0,0,35.5,54.5ZM76.27,57H56.73v6.56H76.27V57ZM57.73,58H75.27v4.56H57.73ZM81.36,51.7H52.53V68.4H81.36Zm-27.83,1H80.36V67.4H53.53Zm15,1.8A.5.5,0,0,0,68,54H65a.5.5,0,0,0,0,1h3A.5.5,0,0,0,68.5,54.5Z" transform="translate(-9 -7)"/></svg>