<svg id="Layer_1" data-name="Layer 1" xmlns="http://www.w3.org/2000/svg" viewBox="0 0 100.4 113.6"><title>remodel-icon</title><path d="M77.09,76.2v-28h4.29a3.16,3.16,0,0,0,2.08-5.53L55.05,17.74a3.14,3.14,0,0,0-4.16,0L22.48,42.64a3.16,3.16,0,0,0,2.08,5.53h4.32v28A3.15,3.15,0,0,0,32,79.35H73.93A3.16,3.16,0,0,0,77.09,76.2ZM57.18,73H49.53V62.93h7.65Zm13.58,0H63.49V59.78a3.15,3.15,0,0,0-3.16-3.16h-14a3.15,3.15,0,0,0-3.15,3.16V73h-8V48.17H70.78V73ZM33,41.86,53,24.32,73,41.86Z" transform="translate(-2.77 -2.55)"/><path d="M103.17,52.75A50.2,50.2,0,1,0,22.46,92.62a3.16,3.16,0,0,0,3.85-5,43.9,43.9,0,1,1,28.19,9l7.8-7.81a3.16,3.16,0,0,0-4.47-4.47L44.61,97.54a3.17,3.17,0,0,0,0,4.47l13.22,13.22a3.16,3.16,0,0,0,4.47-4.47l-7.87-7.88A50.17,50.17,0,0,0,103.17,52.75Z" transform="translate(-2.77 -2.55)"/></svg>